<svg xmlns="http://www.w3.org/2000/svg" width="99" height="19" fill="none"><path fill="#FFD029" d="M8.632 1.834a1 1 0 0 1 1.736 0l1.786 3.127a1 1 0 0 0 .665.483l3.526.732a1 1 0 0 1 .537 1.652l-2.422 2.665a1 1 0 0 0-.254.782l.393 3.58a1 1 0 0 1-1.405 1.02l-3.283-1.48a1 1 0 0 0-.822 0l-3.283 1.48a1 1 0 0 1-1.405-1.02l.393-3.58a1 1 0 0 0-.254-.782L2.118 7.828a1 1 0 0 1 .537-1.652l3.526-.732a1 1 0 0 0 .665-.483l1.786-3.127Zm20 0a1 1 0 0 1 1.736 0l1.786 3.127a1 1 0 0 0 .665.483l3.526.732a1 1 0 0 1 .537 1.652l-2.422 2.665a1 1 0 0 0-.254.782l.393 3.58a1 1 0 0 1-1.405 1.02l-3.283-1.48a1 1 0 0 0-.822 0l-3.283 1.48a1 1 0 0 1-1.405-1.02l.393-3.58a1 1 0 0 0-.254-.782l-2.422-2.665a1 1 0 0 1 .537-1.652l3.526-.732a1 1 0 0 0 .665-.483l1.786-3.127Zm20 0a1 1 0 0 1 1.736 0l1.786 3.127a1 1 0 0 0 .665.483l3.526.732a1 1 0 0 1 .537 1.652l-2.422 2.665a1 1 0 0 0-.254.782l.393 3.58a1 1 0 0 1-1.405 1.02l-3.283-1.48a1 1 0 0 0-.822 0l-3.283 1.48a1 1 0 0 1-1.405-1.02l.393-3.58a1 1 0 0 0-.254-.782l-2.422-2.665a1 1 0 0 1 .537-1.652l3.526-.732a1 1 0 0 0 .665-.483l1.786-3.127Zm20 0a1 1 0 0 1 1.736 0l1.786 3.127a1 1 0 0 0 .665.483l3.526.732a1 1 0 0 1 .537 1.652l-2.422 2.665a1 1 0 0 0-.254.782l.393 3.58a1 1 0 0 1-1.405 1.02l-3.283-1.48a1 1 0 0 0-.822 0l-3.283 1.48a1 1 0 0 1-1.405-1.02l.393-3.58a1 1 0 0 0-.254-.782l-2.422-2.665a1 1 0 0 1 .537-1.652l3.526-.732a1 1 0 0 0 .665-.483l1.786-3.127Zm20 0a1 1 0 0 1 1.736 0l1.786 3.127a1 1 0 0 0 .665.483l3.526.732a1 1 0 0 1 .537 1.652l-2.422 2.665a1 1 0 0 0-.254.782l.393 3.58a1 1 0 0 1-1.405 1.02l-3.283-1.48a1 1 0 0 0-.822 0l-3.283 1.48a1 1 0 0 1-1.405-1.02l.393-3.58a1 1 0 0 0-.254-.782l-2.422-2.665a1 1 0 0 1 .537-1.652l3.526-.732a1 1 0 0 0 .665-.483l1.786-3.127Z"/></svg>